<?xml version="1.0" encoding="UTF-8"?>
<svg xmlns="http://www.w3.org/2000/svg" viewBox="0 0 120 120" width="120" height="120" role="img" aria-labelledby="logoTitle logoDesc">
  <title id="logoTitle">Algeria OpenGov</title>
  <desc id="logoDesc">Stylized green A with crescent, representing Algeria OpenGov</desc>
  <defs>
    <linearGradient id="g" x1="0" x2="1" y1="0" y2="1">
      <stop offset="0" stop-color="#007A3D"/>
      <stop offset="1" stop-color="#00B855"/>
    </linearGradient>
  </defs>
  <rect width="120" height="120" rx="20" fill="url(#g)"/>
  <g transform="translate(18,18)">
    <!-- crescent -->
    <path d="M54 6c-14.9 0-27 12.1-27 27s12.1 27 27 27c5.6 0 10.9-1.7 15.3-4.7-2.7 0.5-5.6 0.8-8.6 0.8-14.9 0-27-12.1-27-27S39.1 6 54 6c3 0 5.9 0.3 8.6 0.8C64.9 7.7 59.6 6 54 6z" fill="#ffffff" opacity="0.95"/>
    <!-- stylized A -->
    <path d="M24 60 L36 18 L48 60 L42 60 L36 36 L30 60 Z" fill="#ffffff" transform="translate(6,-6) scale(1.1)"/>
    <circle cx="56" cy="36" r="6" fill="#FFD700"/>
  </g>
</svg>
